<svg xmlns="http://www.w3.org/2000/svg" xmlns:xlink="http://www.w3.org/1999/xlink" width="100" zoomAndPan="magnify" viewBox="0 0 75 74.999997" height="100" preserveAspectRatio="xMidYMid meet" version="1.0"><defs><clipPath id="f670ea1b98"><path d="M 0 20.113281 L 75 20.113281 L 75 54.613281 L 0 54.613281 Z M 0 20.113281 " clip-rule="nonzero"/></clipPath></defs><g clip-path="url(#f670ea1b98)"><path fill="#000000" d="M 17.207031 32.578125 L 17.734375 32.0625 L 27.347656 22.652344 C 27.347656 22.652344 27.347656 22.648438 27.347656 22.648438 C 27.542969 22.460938 27.75 22.28125 27.96875 22.117188 C 28.191406 21.949219 28.421875 21.792969 28.660156 21.648438 C 29.148438 21.347656 29.664062 21.089844 30.195312 20.875 C 30.726562 20.65625 31.277344 20.484375 31.835938 20.351562 C 32.109375 20.292969 32.382812 20.242188 32.660156 20.207031 C 32.929688 20.171875 33.203125 20.152344 33.476562 20.152344 L 56.824219 20.152344 C 57.972656 20.152344 59.101562 20.460938 60.085938 21.046875 C 61.074219 21.632812 61.882812 22.472656 62.425781 23.476562 L 67.15625 32.230469 L 70.734375 32.230469 C 71.863281 32.230469 72.949219 32.675781 73.75 33.46875 C 74.546875 34.261719 75 35.339844 75 36.460938 L 74.96875 50.066406 L 67.457031 50.066406 C 67.089844 50.925781 66.554688 51.71875 65.875 52.394531 C 64.484375 53.773438 62.59375 54.550781 60.625 54.550781 C 58.65625 54.550781 56.769531 53.773438 55.375 52.394531 C 54.695312 51.71875 54.164062 50.925781 53.792969 50.066406 L 23.992188 50.066406 C 23.625 50.925781 23.089844 51.71875 22.410156 52.394531 C 21.019531 53.773438 19.128906 54.550781 17.160156 54.550781 C 15.195312 54.550781 13.304688 53.773438 11.914062 52.394531 C 11.234375 51.71875 10.699219 50.925781 10.328125 50.066406 L 0 50.066406 L 0 41.640625 C 0 40.503906 0.371094 39.394531 1.058594 38.480469 C 1.742188 37.566406 2.707031 36.894531 3.808594 36.570312 Z M 12.066406 47.1875 C 12.066406 45.84375 12.605469 44.558594 13.5625 43.613281 C 14.515625 42.664062 15.8125 42.128906 17.160156 42.128906 C 18.511719 42.128906 19.808594 42.664062 20.761719 43.613281 C 21.71875 44.558594 22.257812 45.84375 22.257812 47.1875 C 22.257812 48.527344 21.71875 49.8125 20.761719 50.761719 C 19.808594 51.707031 18.511719 52.238281 17.160156 52.238281 C 15.8125 52.238281 14.515625 51.707031 13.5625 50.761719 C 12.605469 49.8125 12.066406 48.527344 12.066406 47.1875 Z M 55.53125 47.1875 C 55.53125 45.84375 56.070312 44.558594 57.023438 43.613281 C 57.976562 42.664062 59.277344 42.128906 60.625 42.128906 C 61.976562 42.128906 63.273438 42.664062 64.226562 43.613281 C 65.183594 44.558594 65.722656 45.84375 65.722656 47.1875 C 65.722656 48.527344 65.183594 49.8125 64.226562 50.761719 C 63.273438 51.707031 61.976562 52.238281 60.625 52.238281 C 59.277344 52.238281 57.976562 51.707031 57.023438 50.761719 C 56.070312 49.8125 55.53125 48.527344 55.53125 47.1875 Z M 43.777344 34.539062 L 43.777344 47.753906 L 24.5625 47.753906 C 24.578125 47.566406 24.585938 47.375 24.585938 47.1875 C 24.585938 45.234375 23.804688 43.359375 22.410156 41.976562 C 21.019531 40.597656 19.128906 39.820312 17.160156 39.820312 C 15.195312 39.820312 13.304688 40.597656 11.914062 41.976562 C 10.519531 43.359375 9.738281 45.234375 9.738281 47.1875 C 9.738281 47.375 9.746094 47.566406 9.761719 47.753906 L 2.332031 47.753906 L 2.332031 41.640625 C 2.332031 41 2.539062 40.375 2.925781 39.859375 C 3.3125 39.34375 3.855469 38.964844 4.476562 38.78125 L 18.722656 34.539062 Z M 65.515625 41.644531 C 64.167969 40.472656 62.429688 39.820312 60.625 39.820312 C 58.65625 39.820312 56.769531 40.597656 55.375 41.976562 C 53.984375 43.359375 53.203125 45.234375 53.203125 47.1875 C 53.203125 47.375 53.210938 47.566406 53.222656 47.753906 L 44.554688 47.753906 L 44.554688 34.539062 L 65.515625 34.539062 Z M 66.292969 34.539062 L 70.734375 34.539062 C 71.246094 34.539062 71.738281 34.742188 72.101562 35.101562 C 72.464844 35.460938 72.667969 35.949219 72.667969 36.457031 L 72.644531 47.753906 L 68.027344 47.753906 C 68.042969 47.566406 68.050781 47.375 68.050781 47.1875 C 68.050781 45.4375 67.421875 43.753906 66.292969 42.425781 Z M 38.355469 35.886719 L 42.085938 35.886719 L 42.085938 36.660156 L 38.355469 36.660156 Z M 60.097656 35.886719 L 63.824219 35.886719 L 63.824219 36.660156 L 60.097656 36.660156 Z M 43.777344 22.464844 L 43.777344 32.230469 L 20.882812 32.230469 L 28.980469 24.296875 C 29.105469 24.175781 29.238281 24.0625 29.378906 23.957031 C 29.539062 23.835938 29.707031 23.722656 29.878906 23.613281 C 30.261719 23.382812 30.664062 23.179688 31.078125 23.011719 C 31.492188 22.839844 31.921875 22.707031 32.359375 22.605469 C 32.558594 22.558594 32.757812 22.527344 32.957031 22.5 C 33.132812 22.476562 33.308594 22.464844 33.484375 22.464844 Z M 44.554688 22.464844 L 56.824219 22.464844 C 57.554688 22.464844 58.269531 22.660156 58.890625 23.03125 C 59.515625 23.402344 60.027344 23.933594 60.371094 24.570312 L 64.511719 32.230469 L 44.554688 32.230469 L 44.554688 22.464844 " fill-opacity="1" fill-rule="evenodd"/></g></svg>