<svg xmlns="http://www.w3.org/2000/svg" xmlns:xlink="http://www.w3.org/1999/xlink" width="100" zoomAndPan="magnify" viewBox="0 0 75 74.999997" height="100" preserveAspectRatio="xMidYMid meet" version="1.0"><defs><clipPath id="166620fae5"><path d="M 20.390625 0 L 36 0 L 36 16 L 20.390625 16 Z M 20.390625 0 " clip-rule="nonzero"/></clipPath><clipPath id="c5289994f4"><path d="M 20.390625 19 L 36 19 L 36 36 L 20.390625 36 Z M 20.390625 19 " clip-rule="nonzero"/></clipPath><clipPath id="e9ea012eb4"><path d="M 20.390625 39 L 36 39 L 36 56 L 20.390625 56 Z M 20.390625 39 " clip-rule="nonzero"/></clipPath><clipPath id="ac6e5b1449"><path d="M 20.390625 59 L 36 59 L 36 75 L 20.390625 75 Z M 20.390625 59 " clip-rule="nonzero"/></clipPath><clipPath id="20d390a623"><path d="M 39 0 L 54.890625 0 L 54.890625 16 L 39 16 Z M 39 0 " clip-rule="nonzero"/></clipPath><clipPath id="eb4958cd89"><path d="M 39 19 L 54.890625 19 L 54.890625 36 L 39 36 Z M 39 19 " clip-rule="nonzero"/></clipPath><clipPath id="f7c9bcf0c0"><path d="M 39 39 L 54.890625 39 L 54.890625 56 L 39 56 Z M 39 39 " clip-rule="nonzero"/></clipPath><clipPath id="b4f52b9801"><path d="M 39 59 L 54.890625 59 L 54.890625 75 L 39 75 Z M 39 59 " clip-rule="nonzero"/></clipPath></defs><g clip-path="url(#166620fae5)"><path fill="#000000" d="M 20.503906 7.589844 C 20.503906 8.085938 20.554688 8.582031 20.652344 9.070312 C 20.75 9.558594 20.894531 10.03125 21.085938 10.492188 C 21.28125 10.953125 21.515625 11.390625 21.792969 11.804688 C 22.074219 12.21875 22.390625 12.601562 22.746094 12.953125 C 23.101562 13.304688 23.488281 13.621094 23.90625 13.898438 C 24.324219 14.175781 24.765625 14.410156 25.226562 14.597656 C 25.691406 14.789062 26.171875 14.933594 26.664062 15.03125 C 27.15625 15.128906 27.652344 15.175781 28.15625 15.175781 C 28.660156 15.175781 29.15625 15.128906 29.648438 15.03125 C 30.140625 14.933594 30.621094 14.789062 31.082031 14.597656 C 31.546875 14.410156 31.988281 14.175781 32.40625 13.898438 C 32.824219 13.621094 33.210938 13.304688 33.566406 12.953125 C 33.921875 12.601562 34.238281 12.21875 34.515625 11.804688 C 34.796875 11.390625 35.03125 10.953125 35.222656 10.492188 C 35.417969 10.03125 35.5625 9.558594 35.660156 9.070312 C 35.757812 8.582031 35.804688 8.085938 35.804688 7.589844 C 35.804688 7.089844 35.757812 6.597656 35.660156 6.109375 C 35.5625 5.621094 35.417969 5.144531 35.222656 4.683594 C 35.03125 4.222656 34.796875 3.785156 34.515625 3.371094 C 34.238281 2.957031 33.921875 2.574219 33.566406 2.222656 C 33.210938 1.871094 32.824219 1.554688 32.40625 1.277344 C 31.988281 1.003906 31.546875 0.769531 31.085938 0.578125 C 30.621094 0.386719 30.140625 0.242188 29.648438 0.144531 C 29.15625 0.046875 28.660156 0 28.15625 0 C 27.652344 0 27.15625 0.0507812 26.664062 0.148438 C 26.171875 0.246094 25.695312 0.390625 25.230469 0.578125 C 24.765625 0.769531 24.324219 1.003906 23.90625 1.28125 C 23.488281 1.558594 23.105469 1.871094 22.75 2.226562 C 22.394531 2.578125 22.074219 2.960938 21.796875 3.375 C 21.519531 3.789062 21.28125 4.226562 21.089844 4.6875 C 20.898438 5.144531 20.75 5.621094 20.652344 6.109375 C 20.554688 6.597656 20.503906 7.089844 20.503906 7.589844 Z M 31.828125 7.589844 C 31.828125 8.070312 31.734375 8.535156 31.546875 8.980469 C 31.359375 9.429688 31.09375 9.820312 30.75 10.164062 C 30.40625 10.503906 30.007812 10.769531 29.558594 10.953125 C 29.109375 11.136719 28.640625 11.230469 28.15625 11.230469 C 27.667969 11.230469 27.199219 11.136719 26.75 10.953125 C 26.300781 10.765625 25.902344 10.503906 25.558594 10.164062 C 25.214844 9.820312 24.949219 9.425781 24.765625 8.980469 C 24.578125 8.535156 24.484375 8.070312 24.484375 7.585938 C 24.484375 7.105469 24.578125 6.640625 24.765625 6.195312 C 24.949219 5.75 25.214844 5.355469 25.5625 5.011719 C 25.90625 4.671875 26.300781 4.410156 26.75 4.222656 C 27.203125 4.039062 27.667969 3.949219 28.15625 3.949219 C 28.644531 3.949219 29.109375 4.039062 29.5625 4.226562 C 30.011719 4.410156 30.40625 4.675781 30.75 5.015625 C 31.09375 5.355469 31.359375 5.75 31.546875 6.195312 C 31.734375 6.640625 31.828125 7.105469 31.828125 7.589844 Z M 31.828125 7.589844 " fill-opacity="1" fill-rule="nonzero"/></g><g clip-path="url(#c5289994f4)"><path fill="#000000" d="M 28.15625 35.117188 C 28.660156 35.117188 29.15625 35.070312 29.648438 34.972656 C 30.140625 34.875 30.621094 34.730469 31.085938 34.539062 C 31.546875 34.347656 31.988281 34.117188 32.40625 33.839844 C 32.824219 33.5625 33.210938 33.246094 33.566406 32.894531 C 33.921875 32.542969 34.238281 32.160156 34.515625 31.746094 C 34.796875 31.332031 35.03125 30.894531 35.222656 30.433594 C 35.417969 29.972656 35.5625 29.496094 35.660156 29.007812 C 35.757812 28.519531 35.804688 28.027344 35.804688 27.527344 C 35.804688 27.03125 35.757812 26.535156 35.660156 26.046875 C 35.5625 25.558594 35.417969 25.085938 35.222656 24.625 C 35.03125 24.164062 34.796875 23.726562 34.515625 23.3125 C 34.238281 22.898438 33.921875 22.515625 33.566406 22.164062 C 33.210938 21.8125 32.824219 21.496094 32.40625 21.21875 C 31.988281 20.941406 31.546875 20.710938 31.082031 20.519531 C 30.617188 20.328125 30.140625 20.183594 29.648438 20.085938 C 29.15625 19.988281 28.65625 19.941406 28.15625 19.941406 C 27.652344 19.941406 27.15625 19.988281 26.664062 20.085938 C 26.167969 20.183594 25.691406 20.328125 25.226562 20.519531 C 24.761719 20.710938 24.324219 20.945312 23.90625 21.21875 C 23.488281 21.496094 23.101562 21.8125 22.746094 22.164062 C 22.390625 22.515625 22.074219 22.898438 21.792969 23.3125 C 21.515625 23.726562 21.28125 24.164062 21.085938 24.625 C 20.894531 25.085938 20.75 25.5625 20.652344 26.050781 C 20.554688 26.539062 20.503906 27.03125 20.503906 27.53125 C 20.503906 28.027344 20.554688 28.519531 20.652344 29.011719 C 20.753906 29.5 20.898438 29.972656 21.089844 30.433594 C 21.28125 30.894531 21.519531 31.328125 21.796875 31.742188 C 22.078125 32.15625 22.394531 32.542969 22.75 32.894531 C 23.105469 33.246094 23.492188 33.558594 23.90625 33.835938 C 24.324219 34.113281 24.765625 34.347656 25.230469 34.539062 C 25.695312 34.730469 26.171875 34.875 26.664062 34.96875 C 27.15625 35.066406 27.652344 35.117188 28.15625 35.117188 Z M 28.15625 23.886719 C 28.644531 23.886719 29.113281 23.980469 29.5625 24.164062 C 30.011719 24.351562 30.40625 24.613281 30.75 24.957031 C 31.097656 25.296875 31.359375 25.691406 31.546875 26.136719 C 31.734375 26.582031 31.828125 27.046875 31.828125 27.53125 C 31.828125 28.011719 31.734375 28.476562 31.546875 28.921875 C 31.359375 29.367188 31.09375 29.761719 30.75 30.105469 C 30.40625 30.445312 30.011719 30.707031 29.5625 30.894531 C 29.109375 31.078125 28.644531 31.171875 28.15625 31.171875 C 27.667969 31.171875 27.199219 31.078125 26.75 30.894531 C 26.300781 30.707031 25.90625 30.445312 25.558594 30.105469 C 25.214844 29.761719 24.949219 29.371094 24.765625 28.921875 C 24.578125 28.476562 24.484375 28.011719 24.484375 27.53125 C 24.484375 27.046875 24.578125 26.582031 24.765625 26.136719 C 24.953125 25.691406 25.21875 25.296875 25.5625 24.957031 C 25.90625 24.613281 26.300781 24.351562 26.75 24.167969 C 27.203125 23.980469 27.667969 23.890625 28.15625 23.886719 Z M 28.15625 23.886719 " fill-opacity="1" fill-rule="nonzero"/></g><g clip-path="url(#e9ea012eb4)"><path fill="#000000" d="M 28.15625 55.058594 C 28.660156 55.058594 29.15625 55.011719 29.648438 54.914062 C 30.140625 54.816406 30.621094 54.671875 31.085938 54.480469 C 31.546875 54.289062 31.988281 54.054688 32.40625 53.78125 C 32.824219 53.503906 33.210938 53.1875 33.566406 52.835938 C 33.921875 52.484375 34.238281 52.101562 34.515625 51.6875 C 34.796875 51.273438 35.03125 50.835938 35.222656 50.375 C 35.417969 49.914062 35.5625 49.4375 35.660156 48.949219 C 35.757812 48.460938 35.804688 47.96875 35.804688 47.46875 C 35.804688 46.972656 35.757812 46.480469 35.660156 45.988281 C 35.5625 45.5 35.417969 45.027344 35.222656 44.566406 C 35.03125 44.105469 34.796875 43.667969 34.515625 43.253906 C 34.238281 42.839844 33.921875 42.457031 33.566406 42.105469 C 33.210938 41.753906 32.824219 41.4375 32.40625 41.160156 C 31.988281 40.882812 31.546875 40.652344 31.082031 40.460938 C 30.621094 40.269531 30.140625 40.125 29.648438 40.027344 C 29.15625 39.929688 28.660156 39.882812 28.15625 39.882812 C 27.652344 39.882812 27.15625 39.929688 26.664062 40.027344 C 26.171875 40.125 25.691406 40.269531 25.226562 40.460938 C 24.765625 40.652344 24.324219 40.882812 23.90625 41.160156 C 23.488281 41.4375 23.101562 41.753906 22.746094 42.105469 C 22.390625 42.457031 22.074219 42.839844 21.792969 43.253906 C 21.515625 43.667969 21.28125 44.105469 21.085938 44.566406 C 20.894531 45.027344 20.75 45.5 20.652344 45.988281 C 20.554688 46.476562 20.503906 46.972656 20.503906 47.46875 C 20.503906 47.96875 20.554688 48.460938 20.652344 48.949219 C 20.75 49.4375 20.898438 49.914062 21.089844 50.371094 C 21.28125 50.832031 21.519531 51.269531 21.796875 51.683594 C 22.074219 52.097656 22.394531 52.480469 22.75 52.832031 C 23.105469 53.1875 23.488281 53.5 23.90625 53.777344 C 24.324219 54.054688 24.765625 54.289062 25.230469 54.480469 C 25.695312 54.671875 26.171875 54.8125 26.664062 54.910156 C 27.15625 55.007812 27.652344 55.058594 28.15625 55.058594 Z M 28.15625 43.828125 C 28.644531 43.828125 29.113281 43.921875 29.5625 44.105469 C 30.011719 44.292969 30.40625 44.554688 30.75 44.898438 C 31.097656 45.238281 31.359375 45.632812 31.546875 46.078125 C 31.734375 46.523438 31.828125 46.988281 31.828125 47.472656 C 31.828125 47.953125 31.734375 48.417969 31.546875 48.863281 C 31.359375 49.308594 31.09375 49.703125 30.75 50.046875 C 30.40625 50.386719 30.007812 50.648438 29.558594 50.835938 C 29.109375 51.019531 28.640625 51.113281 28.15625 51.113281 C 27.667969 51.113281 27.199219 51.019531 26.75 50.835938 C 26.300781 50.648438 25.902344 50.386719 25.558594 50.042969 C 25.214844 49.703125 24.949219 49.308594 24.765625 48.863281 C 24.578125 48.417969 24.484375 47.953125 24.484375 47.46875 C 24.484375 46.988281 24.578125 46.523438 24.765625 46.078125 C 24.953125 45.632812 25.21875 45.238281 25.5625 44.898438 C 25.90625 44.554688 26.300781 44.292969 26.753906 44.109375 C 27.203125 43.921875 27.667969 43.828125 28.15625 43.828125 Z M 28.15625 43.828125 " fill-opacity="1" fill-rule="nonzero"/></g><g clip-path="url(#ac6e5b1449)"><path fill="#000000" d="M 28.15625 75 C 28.660156 75 29.15625 74.953125 29.648438 74.855469 C 30.140625 74.757812 30.621094 74.613281 31.085938 74.421875 C 31.546875 74.230469 31.988281 73.996094 32.40625 73.722656 C 32.824219 73.445312 33.210938 73.128906 33.566406 72.777344 C 33.921875 72.425781 34.238281 72.042969 34.515625 71.628906 C 34.796875 71.214844 35.03125 70.777344 35.222656 70.316406 C 35.417969 69.855469 35.5625 69.378906 35.660156 68.890625 C 35.757812 68.402344 35.804688 67.910156 35.804688 67.410156 C 35.804688 66.914062 35.757812 66.417969 35.660156 65.929688 C 35.5625 65.441406 35.417969 64.96875 35.222656 64.507812 C 35.03125 64.046875 34.796875 63.609375 34.515625 63.195312 C 34.238281 62.78125 33.921875 62.398438 33.566406 62.046875 C 33.210938 61.695312 32.824219 61.378906 32.40625 61.101562 C 31.988281 60.824219 31.546875 60.589844 31.082031 60.402344 C 30.621094 60.210938 30.140625 60.066406 29.648438 59.96875 C 29.15625 59.871094 28.660156 59.824219 28.15625 59.824219 C 27.652344 59.824219 27.15625 59.871094 26.664062 59.96875 C 26.171875 60.066406 25.691406 60.210938 25.226562 60.402344 C 24.765625 60.589844 24.324219 60.824219 23.90625 61.101562 C 23.488281 61.378906 23.101562 61.695312 22.746094 62.046875 C 22.390625 62.398438 22.074219 62.78125 21.792969 63.195312 C 21.515625 63.609375 21.28125 64.046875 21.085938 64.507812 C 20.894531 64.96875 20.75 65.441406 20.652344 65.929688 C 20.554688 66.417969 20.503906 66.914062 20.503906 67.410156 C 20.503906 67.910156 20.554688 68.402344 20.652344 68.890625 C 20.75 69.378906 20.898438 69.855469 21.089844 70.3125 C 21.28125 70.773438 21.519531 71.210938 21.796875 71.625 C 22.074219 72.039062 22.394531 72.421875 22.75 72.773438 C 23.105469 73.128906 23.488281 73.441406 23.90625 73.71875 C 24.324219 73.996094 24.765625 74.230469 25.230469 74.421875 C 25.695312 74.609375 26.171875 74.753906 26.664062 74.851562 C 27.15625 74.949219 27.652344 75 28.15625 75 Z M 28.15625 63.769531 C 28.644531 63.769531 29.113281 63.863281 29.5625 64.046875 C 30.011719 64.234375 30.40625 64.496094 30.75 64.835938 C 31.097656 65.179688 31.359375 65.574219 31.546875 66.019531 C 31.734375 66.464844 31.828125 66.929688 31.828125 67.414062 C 31.828125 67.894531 31.734375 68.359375 31.546875 68.804688 C 31.359375 69.25 31.09375 69.644531 30.75 69.988281 C 30.40625 70.328125 30.007812 70.589844 29.558594 70.777344 C 29.109375 70.960938 28.640625 71.050781 28.15625 71.050781 C 27.667969 71.050781 27.199219 70.960938 26.75 70.773438 C 26.300781 70.589844 25.902344 70.328125 25.558594 69.984375 C 25.214844 69.644531 24.949219 69.25 24.765625 68.804688 C 24.578125 68.359375 24.484375 67.894531 24.484375 67.410156 C 24.484375 66.929688 24.578125 66.464844 24.765625 66.019531 C 24.953125 65.574219 25.21875 65.179688 25.5625 64.835938 C 25.90625 64.496094 26.300781 64.234375 26.753906 64.046875 C 27.203125 63.863281 27.667969 63.769531 28.15625 63.769531 Z M 28.15625 63.769531 " fill-opacity="1" fill-rule="nonzero"/></g><g clip-path="url(#20d390a623)"><path fill="#000000" d="M 47.257812 0 C 46.753906 0 46.257812 0.046875 45.765625 0.144531 C 45.273438 0.242188 44.792969 0.386719 44.328125 0.578125 C 43.867188 0.769531 43.425781 1.003906 43.007812 1.277344 C 42.589844 1.554688 42.203125 1.871094 41.847656 2.222656 C 41.492188 2.574219 41.175781 2.957031 40.898438 3.371094 C 40.617188 3.785156 40.382812 4.222656 40.191406 4.683594 C 39.996094 5.144531 39.851562 5.621094 39.753906 6.109375 C 39.65625 6.597656 39.609375 7.089844 39.609375 7.589844 C 39.609375 8.085938 39.65625 8.582031 39.753906 9.070312 C 39.851562 9.558594 39.996094 10.03125 40.191406 10.492188 C 40.382812 10.953125 40.617188 11.390625 40.898438 11.804688 C 41.175781 12.21875 41.492188 12.601562 41.847656 12.953125 C 42.203125 13.304688 42.589844 13.621094 43.007812 13.898438 C 43.425781 14.175781 43.867188 14.410156 44.332031 14.597656 C 44.792969 14.789062 45.273438 14.933594 45.765625 15.03125 C 46.257812 15.128906 46.753906 15.175781 47.257812 15.175781 C 47.761719 15.175781 48.257812 15.128906 48.75 15.03125 C 49.242188 14.933594 49.722656 14.789062 50.1875 14.597656 C 50.648438 14.410156 51.089844 14.175781 51.507812 13.898438 C 51.925781 13.621094 52.3125 13.304688 52.667969 12.953125 C 53.023438 12.601562 53.339844 12.21875 53.617188 11.804688 C 53.898438 11.390625 54.132812 10.953125 54.328125 10.492188 C 54.519531 10.03125 54.664062 9.558594 54.761719 9.070312 C 54.859375 8.582031 54.910156 8.085938 54.910156 7.589844 C 54.910156 7.089844 54.859375 6.597656 54.761719 6.109375 C 54.664062 5.621094 54.515625 5.144531 54.324219 4.6875 C 54.132812 4.226562 53.894531 3.789062 53.617188 3.375 C 53.335938 2.960938 53.019531 2.578125 52.664062 2.226562 C 52.308594 1.871094 51.925781 1.558594 51.507812 1.28125 C 51.089844 1.003906 50.648438 0.769531 50.183594 0.578125 C 49.71875 0.390625 49.242188 0.246094 48.75 0.148438 C 48.257812 0.0507812 47.757812 0 47.257812 0 Z M 47.257812 11.230469 C 46.769531 11.230469 46.300781 11.136719 45.851562 10.953125 C 45.402344 10.765625 45.007812 10.503906 44.660156 10.164062 C 44.316406 9.820312 44.050781 9.425781 43.867188 8.980469 C 43.679688 8.535156 43.585938 8.070312 43.585938 7.585938 C 43.585938 7.105469 43.679688 6.640625 43.867188 6.195312 C 44.054688 5.75 44.320312 5.355469 44.664062 5.011719 C 45.007812 4.671875 45.402344 4.410156 45.855469 4.222656 C 46.304688 4.039062 46.773438 3.949219 47.257812 3.949219 C 47.746094 3.949219 48.214844 4.039062 48.664062 4.226562 C 49.113281 4.410156 49.511719 4.671875 49.855469 5.015625 C 50.199219 5.355469 50.464844 5.75 50.648438 6.195312 C 50.835938 6.640625 50.929688 7.105469 50.929688 7.589844 C 50.929688 8.070312 50.835938 8.535156 50.648438 8.980469 C 50.460938 9.425781 50.195312 9.820312 49.851562 10.164062 C 49.507812 10.503906 49.109375 10.765625 48.660156 10.953125 C 48.210938 11.136719 47.742188 11.230469 47.257812 11.230469 Z M 47.257812 11.230469 " fill-opacity="1" fill-rule="nonzero"/></g><g clip-path="url(#eb4958cd89)"><path fill="#000000" d="M 47.257812 19.941406 C 46.753906 19.941406 46.257812 19.988281 45.765625 20.085938 C 45.273438 20.183594 44.792969 20.328125 44.328125 20.519531 C 43.867188 20.710938 43.425781 20.945312 43.007812 21.21875 C 42.589844 21.496094 42.203125 21.8125 41.847656 22.164062 C 41.492188 22.515625 41.175781 22.898438 40.898438 23.3125 C 40.617188 23.726562 40.382812 24.164062 40.191406 24.625 C 39.996094 25.085938 39.851562 25.5625 39.753906 26.050781 C 39.65625 26.539062 39.609375 27.03125 39.609375 27.53125 C 39.609375 28.027344 39.65625 28.519531 39.753906 29.011719 C 39.851562 29.5 39.996094 29.972656 40.191406 30.433594 C 40.382812 30.894531 40.617188 31.332031 40.898438 31.746094 C 41.175781 32.160156 41.492188 32.542969 41.847656 32.894531 C 42.203125 33.246094 42.589844 33.5625 43.007812 33.839844 C 43.425781 34.117188 43.867188 34.347656 44.332031 34.539062 C 44.792969 34.730469 45.273438 34.875 45.765625 34.972656 C 46.257812 35.070312 46.753906 35.117188 47.257812 35.117188 C 47.761719 35.117188 48.257812 35.070312 48.75 34.972656 C 49.242188 34.875 49.722656 34.730469 50.1875 34.539062 C 50.648438 34.347656 51.089844 34.117188 51.507812 33.839844 C 51.925781 33.5625 52.3125 33.246094 52.667969 32.894531 C 53.023438 32.542969 53.339844 32.160156 53.617188 31.746094 C 53.898438 31.332031 54.132812 30.894531 54.328125 30.433594 C 54.519531 29.972656 54.664062 29.5 54.761719 29.011719 C 54.859375 28.523438 54.910156 28.027344 54.910156 27.53125 C 54.910156 27.03125 54.859375 26.539062 54.761719 26.050781 C 54.664062 25.5625 54.515625 25.085938 54.324219 24.628906 C 54.132812 24.167969 53.894531 23.730469 53.617188 23.316406 C 53.335938 22.902344 53.019531 22.519531 52.664062 22.167969 C 52.308594 21.8125 51.925781 21.5 51.507812 21.222656 C 51.089844 20.945312 50.648438 20.710938 50.183594 20.519531 C 49.71875 20.328125 49.242188 20.1875 48.75 20.089844 C 48.257812 19.992188 47.757812 19.941406 47.257812 19.941406 Z M 47.257812 31.171875 C 46.769531 31.171875 46.300781 31.078125 45.851562 30.894531 C 45.402344 30.707031 45.007812 30.445312 44.660156 30.101562 C 44.316406 29.761719 44.050781 29.367188 43.867188 28.921875 C 43.679688 28.476562 43.585938 28.011719 43.585938 27.527344 C 43.585938 27.046875 43.679688 26.582031 43.867188 26.136719 C 44.054688 25.691406 44.320312 25.296875 44.664062 24.953125 C 45.007812 24.613281 45.402344 24.351562 45.855469 24.164062 C 46.304688 23.980469 46.773438 23.886719 47.257812 23.886719 C 47.746094 23.886719 48.214844 23.980469 48.664062 24.164062 C 49.113281 24.351562 49.511719 24.613281 49.855469 24.957031 C 50.199219 25.296875 50.464844 25.691406 50.648438 26.136719 C 50.835938 26.582031 50.929688 27.046875 50.929688 27.53125 C 50.929688 28.011719 50.835938 28.476562 50.648438 28.921875 C 50.460938 29.367188 50.195312 29.761719 49.851562 30.101562 C 49.507812 30.445312 49.109375 30.707031 48.660156 30.890625 C 48.210938 31.078125 47.742188 31.171875 47.257812 31.171875 Z M 47.257812 31.171875 " fill-opacity="1" fill-rule="nonzero"/></g><g clip-path="url(#f7c9bcf0c0)"><path fill="#000000" d="M 47.257812 39.882812 C 46.753906 39.882812 46.257812 39.929688 45.765625 40.027344 C 45.273438 40.125 44.792969 40.269531 44.328125 40.460938 C 43.867188 40.652344 43.425781 40.882812 43.007812 41.160156 C 42.589844 41.4375 42.203125 41.753906 41.847656 42.105469 C 41.492188 42.457031 41.175781 42.839844 40.894531 43.253906 C 40.617188 43.667969 40.382812 44.105469 40.191406 44.566406 C 39.996094 45.027344 39.851562 45.503906 39.753906 45.992188 C 39.65625 46.480469 39.609375 46.972656 39.609375 47.472656 C 39.609375 47.96875 39.65625 48.464844 39.753906 48.953125 C 39.851562 49.441406 39.996094 49.914062 40.191406 50.375 C 40.382812 50.835938 40.617188 51.273438 40.898438 51.6875 C 41.175781 52.101562 41.492188 52.484375 41.847656 52.835938 C 42.203125 53.1875 42.589844 53.503906 43.007812 53.78125 C 43.425781 54.058594 43.867188 54.289062 44.332031 54.480469 C 44.796875 54.671875 45.273438 54.816406 45.765625 54.914062 C 46.257812 55.011719 46.757812 55.058594 47.257812 55.058594 C 47.761719 55.058594 48.257812 55.011719 48.75 54.914062 C 49.242188 54.816406 49.722656 54.671875 50.1875 54.480469 C 50.652344 54.289062 51.089844 54.054688 51.507812 53.78125 C 51.925781 53.503906 52.3125 53.1875 52.667969 52.835938 C 53.023438 52.484375 53.339844 52.101562 53.621094 51.6875 C 53.898438 51.273438 54.132812 50.835938 54.328125 50.375 C 54.519531 49.914062 54.664062 49.4375 54.761719 48.949219 C 54.859375 48.460938 54.910156 47.96875 54.910156 47.46875 C 54.90625 46.972656 54.859375 46.480469 54.761719 45.988281 C 54.660156 45.5 54.515625 45.027344 54.324219 44.566406 C 54.132812 44.105469 53.894531 43.671875 53.617188 43.257812 C 53.335938 42.84375 53.019531 42.457031 52.664062 42.105469 C 52.308594 41.753906 51.921875 41.441406 51.507812 41.164062 C 51.089844 40.886719 50.648438 40.652344 50.183594 40.460938 C 49.71875 40.269531 49.242188 40.125 48.75 40.03125 C 48.257812 39.933594 47.757812 39.882812 47.257812 39.882812 Z M 47.257812 51.113281 C 46.769531 51.113281 46.300781 51.019531 45.851562 50.835938 C 45.402344 50.648438 45.007812 50.386719 44.664062 50.042969 C 44.316406 49.703125 44.054688 49.308594 43.867188 48.863281 C 43.679688 48.417969 43.585938 47.953125 43.585938 47.46875 C 43.585938 46.988281 43.679688 46.523438 43.867188 46.078125 C 44.054688 45.632812 44.316406 45.238281 44.664062 44.894531 C 45.007812 44.554688 45.402344 44.292969 45.851562 44.105469 C 46.304688 43.921875 46.769531 43.828125 47.257812 43.828125 C 47.746094 43.828125 48.210938 43.921875 48.664062 44.105469 C 49.113281 44.292969 49.507812 44.554688 49.851562 44.894531 C 50.199219 45.238281 50.464844 45.628906 50.648438 46.078125 C 50.835938 46.523438 50.929688 46.988281 50.929688 47.46875 C 50.929688 47.953125 50.835938 48.417969 50.648438 48.863281 C 50.460938 49.308594 50.195312 49.703125 49.851562 50.042969 C 49.507812 50.386719 49.113281 50.648438 48.660156 50.832031 C 48.210938 51.019531 47.746094 51.109375 47.257812 51.113281 Z M 47.257812 51.113281 " fill-opacity="1" fill-rule="nonzero"/></g><g clip-path="url(#b4f52b9801)"><path fill="#000000" d="M 47.257812 59.824219 C 46.753906 59.824219 46.257812 59.871094 45.765625 59.96875 C 45.273438 60.066406 44.792969 60.210938 44.328125 60.402344 C 43.867188 60.59375 43.425781 60.824219 43.007812 61.101562 C 42.589844 61.378906 42.203125 61.695312 41.847656 62.046875 C 41.492188 62.398438 41.175781 62.78125 40.894531 63.195312 C 40.617188 63.609375 40.382812 64.046875 40.191406 64.507812 C 39.996094 64.96875 39.851562 65.441406 39.753906 65.933594 C 39.65625 66.421875 39.609375 66.914062 39.609375 67.414062 C 39.609375 67.910156 39.65625 68.402344 39.753906 68.894531 C 39.851562 69.382812 39.996094 69.855469 40.191406 70.316406 C 40.382812 70.777344 40.617188 71.214844 40.898438 71.628906 C 41.175781 72.042969 41.492188 72.425781 41.847656 72.777344 C 42.203125 73.128906 42.589844 73.445312 43.007812 73.722656 C 43.425781 74 43.867188 74.230469 44.332031 74.421875 C 44.796875 74.613281 45.273438 74.757812 45.765625 74.855469 C 46.257812 74.953125 46.757812 75 47.257812 75 C 47.761719 75 48.257812 74.953125 48.75 74.855469 C 49.242188 74.757812 49.722656 74.613281 50.1875 74.421875 C 50.652344 74.230469 51.089844 73.996094 51.507812 73.722656 C 51.925781 73.445312 52.3125 73.128906 52.667969 72.777344 C 53.023438 72.425781 53.339844 72.042969 53.621094 71.628906 C 53.898438 71.210938 54.132812 70.773438 54.328125 70.316406 C 54.519531 69.855469 54.664062 69.378906 54.761719 68.890625 C 54.859375 68.402344 54.910156 67.910156 54.910156 67.410156 C 54.90625 66.914062 54.859375 66.417969 54.761719 65.929688 C 54.660156 65.441406 54.515625 64.96875 54.324219 64.507812 C 54.132812 64.046875 53.894531 63.609375 53.617188 63.195312 C 53.335938 62.78125 53.019531 62.398438 52.664062 62.046875 C 52.308594 61.695312 51.921875 61.382812 51.507812 61.105469 C 51.089844 60.828125 50.648438 60.59375 50.183594 60.402344 C 49.71875 60.210938 49.242188 60.066406 48.75 59.96875 C 48.257812 59.871094 47.757812 59.824219 47.257812 59.824219 Z M 47.257812 71.050781 C 46.769531 71.050781 46.300781 70.960938 45.851562 70.773438 C 45.402344 70.589844 45.007812 70.328125 44.664062 69.984375 C 44.316406 69.644531 44.054688 69.25 43.867188 68.804688 C 43.679688 68.359375 43.585938 67.894531 43.585938 67.410156 C 43.585938 66.929688 43.679688 66.464844 43.867188 66.019531 C 44.054688 65.574219 44.316406 65.179688 44.664062 64.835938 C 45.007812 64.496094 45.402344 64.234375 45.851562 64.046875 C 46.304688 63.863281 46.769531 63.769531 47.257812 63.769531 C 47.746094 63.769531 48.210938 63.863281 48.664062 64.046875 C 49.113281 64.234375 49.507812 64.496094 49.851562 64.835938 C 50.199219 65.179688 50.464844 65.570312 50.648438 66.019531 C 50.835938 66.464844 50.929688 66.929688 50.929688 67.410156 C 50.929688 67.894531 50.835938 68.359375 50.648438 68.804688 C 50.460938 69.25 50.195312 69.644531 49.851562 69.984375 C 49.507812 70.328125 49.113281 70.589844 48.660156 70.773438 C 48.210938 70.960938 47.746094 71.050781 47.257812 71.050781 Z M 47.257812 71.050781 " fill-opacity="1" fill-rule="nonzero"/></g></svg>