<svg xmlns="http://www.w3.org/2000/svg" xmlns:xlink="http://www.w3.org/1999/xlink" width="100" zoomAndPan="magnify" viewBox="0 0 75 74.999997" height="100" preserveAspectRatio="xMidYMid meet" version="1.0"><defs><clipPath id="9a257a9bf4"><path d="M 56 1.5 L 75 1.5 L 75 20 L 56 20 Z M 56 1.5 " clip-rule="nonzero"/></clipPath><clipPath id="05461beac0"><path d="M 0 13 L 60 13 L 60 73.5 L 0 73.5 Z M 0 13 " clip-rule="nonzero"/></clipPath></defs><g clip-path="url(#9a257a9bf4)"><path fill="#000000" d="M 73.527344 9.449219 L 66.855469 2.785156 C 66.167969 2.097656 65.261719 1.753906 64.355469 1.753906 C 63.453125 1.753906 62.546875 2.097656 61.859375 2.785156 L 56.523438 8.105469 L 68.191406 19.753906 L 73.527344 14.433594 C 74.90625 13.058594 74.90625 10.824219 73.527344 9.449219 Z M 73.527344 9.449219 " fill-opacity="1" fill-rule="nonzero"/></g><path fill="#000000" d="M 21.875 42.6875 L 33.546875 54.335938 L 65.691406 22.25 L 54.023438 10.601562 Z M 21.875 42.6875 " fill-opacity="1" fill-rule="nonzero"/><path fill="#000000" d="M 19.359375 45.179688 L 16.867188 59.3125 L 31.027344 56.828125 Z M 19.359375 45.179688 " fill-opacity="1" fill-rule="nonzero"/><g clip-path="url(#05461beac0)"><path fill="#000000" d="M 51.617188 65.609375 L 7.617188 65.609375 L 7.617188 21.609375 L 38.671875 21.609375 L 46.324219 13.972656 L 4.917969 13.972656 C 2.199219 13.972656 -0.0195312 16.195312 -0.0195312 18.910156 L -0.0195312 68.308594 C -0.0195312 71.027344 2.199219 73.25 4.917969 73.25 L 54.316406 73.25 C 57.035156 73.25 59.257812 71.027344 59.257812 68.308594 L 59.257812 32.992188 L 51.617188 40.617188 Z M 51.617188 65.609375 " fill-opacity="1" fill-rule="nonzero"/></g></svg>