<svg xmlns="http://www.w3.org/2000/svg" xmlns:xlink="http://www.w3.org/1999/xlink" width="500" zoomAndPan="magnify" viewBox="0 0 375 374.999991" height="500" preserveAspectRatio="xMidYMid meet" version="1.0"><path fill="#000000" d="M 306.054688 0.375 C 282.640625 2.09375 259.675781 7.699219 236.636719 11.589844 C 212.703125 15.550781 189.738281 17.195312 165.726562 13.007812 C 165.203125 12.933594 164.679688 13.007812 164.230469 13.15625 C 162.808594 13.308594 161.386719 13.832031 160.339844 14.878906 C 154.058594 20.558594 151.066406 31.324219 147.625 38.949219 C 144.109375 46.800781 140.667969 54.648438 137.300781 62.574219 C 130.046875 79.394531 123.089844 96.367188 115.984375 113.261719 C 109.027344 129.933594 102.445312 146.753906 95.5625 163.5 C 88.605469 180.398438 80.902344 196.917969 74.316406 213.964844 C 72.898438 217.554688 77.757812 219.496094 80.226562 217.40625 C 94.140625 217.925781 107.902344 216.207031 121.816406 215.011719 C 128.773438 214.414062 135.730469 214.113281 142.6875 213.964844 C 144.480469 213.890625 146.425781 214.039062 148.445312 214.191406 C 142.238281 223.011719 136.480469 232.207031 130.496094 241.179688 C 121.742188 254.335938 112.839844 267.34375 104.464844 280.800781 C 88.15625 306.894531 72.898438 333.65625 61.527344 362.289062 C 59.359375 367.824219 63.398438 371.636719 68.035156 372.160156 C 70.878906 374.175781 74.691406 375 78.65625 373.207031 C 112.691406 357.878906 138.574219 327.75 163.40625 300.910156 C 190.710938 271.382812 221.152344 244.992188 248.90625 215.835938 C 265.886719 197.964844 280.171875 178.527344 295.433594 159.242188 C 300.144531 153.257812 297.152344 145.484375 289.449219 144.738281 C 262.742188 142.121094 235.816406 142.941406 208.960938 142.644531 C 245.242188 100.402344 280.246094 56.96875 312.5625 11.738281 C 315.777344 7.175781 311.515625 0 306.054688 0.375 Z M 272.84375 161.933594 C 263.34375 174.117188 252.347656 185.40625 241.875 196.398438 C 227.511719 211.421875 212.402344 225.777344 197.144531 239.90625 C 182.855469 253.066406 168.644531 266.148438 155.328125 280.277344 C 142.6875 293.660156 130.417969 307.339844 117.105469 320.050781 C 107.605469 329.171875 97.65625 337.542969 86.886719 344.796875 C 96.609375 324.386719 108.128906 304.726562 119.574219 285.210938 C 125.558594 275.042969 131.316406 264.726562 136.925781 254.410156 C 137.449219 253.589844 137.976562 252.839844 138.5 252.019531 C 143.511719 244.46875 148.671875 236.992188 153.535156 229.292969 C 157.347656 223.308594 161.613281 217.40625 164.902344 210.976562 C 166.398438 209.554688 167.222656 207.609375 167.074219 205.742188 C 167.074219 205.667969 167.074219 205.59375 167.074219 205.441406 C 166.921875 204.246094 166.398438 203.125 165.351562 202.078125 C 160.265625 196.769531 152.261719 197.890625 145.378906 198.117188 C 137.75 198.414062 130.121094 199.460938 122.640625 200.734375 C 109.925781 202.902344 97.582031 205.890625 85.390625 209.703125 C 103.265625 181.371094 116.730469 149.445312 129.671875 118.792969 C 136.703125 102.125 143.734375 85.375 150.988281 68.78125 C 154.582031 60.554688 158.246094 52.257812 161.984375 44.109375 C 165.277344 36.855469 170.664062 29.007812 171.710938 21.007812 C 190.636719 28.109375 213.375 26.167969 232.75 23.773438 C 251.75 21.457031 270.597656 17.644531 289.597656 16 C 253.84375 59.359375 218.164062 102.796875 180.761719 144.738281 C 174.925781 151.316406 179.039062 161.183594 187.792969 161.707031 C 215.992188 163.578125 244.492188 162.53125 272.84375 161.933594 Z M 272.84375 161.933594 " fill-opacity="1" fill-rule="nonzero"/></svg>