<svg xmlns="http://www.w3.org/2000/svg" xmlns:xlink="http://www.w3.org/1999/xlink" width="100" zoomAndPan="magnify" viewBox="0 0 75 74.999997" height="100" preserveAspectRatio="xMidYMid meet" version="1.0"><defs><clipPath id="0d476e0801"><path d="M 0 9.128906 L 73.5 9.128906 L 73.5 38 L 0 38 Z M 0 9.128906 " clip-rule="nonzero"/></clipPath><clipPath id="153297dda7"><path d="M 0 21 L 73.5 21 L 73.5 66.128906 L 0 66.128906 Z M 0 21 " clip-rule="nonzero"/></clipPath></defs><g clip-path="url(#0d476e0801)"><path fill="#000000" d="M 36.75 37.15625 L 73.496094 14.925781 L 73.496094 14.828125 C 73.496094 14.453125 73.460938 14.082031 73.390625 13.714844 C 73.316406 13.347656 73.210938 12.992188 73.066406 12.648438 C 72.925781 12.300781 72.75 11.972656 72.542969 11.660156 C 72.339844 11.351562 72.105469 11.0625 71.839844 10.796875 C 71.578125 10.535156 71.292969 10.296875 70.984375 10.089844 C 70.675781 9.882812 70.351562 9.707031 70.007812 9.5625 C 69.664062 9.417969 69.3125 9.3125 68.945312 9.238281 C 68.582031 9.164062 68.214844 9.128906 67.84375 9.128906 L 5.65625 9.128906 C 5.285156 9.128906 4.917969 9.164062 4.554688 9.238281 C 4.1875 9.3125 3.835938 9.417969 3.492188 9.5625 C 3.148438 9.707031 2.824219 9.882812 2.515625 10.089844 C 2.207031 10.296875 1.921875 10.535156 1.660156 10.796875 C 1.394531 11.0625 1.160156 11.351562 0.957031 11.660156 C 0.75 11.972656 0.574219 12.300781 0.433594 12.648438 C 0.289062 12.992188 0.183594 13.347656 0.109375 13.714844 C 0.0390625 14.082031 0.00390625 14.453125 0.00390625 14.828125 L 0.00390625 14.925781 Z M 36.75 37.15625 " fill-opacity="1" fill-rule="nonzero"/></g><g clip-path="url(#153297dda7)"><path fill="#000000" d="M 38.207031 42.921875 C 37.757812 43.191406 37.273438 43.328125 36.75 43.328125 C 36.226562 43.328125 35.742188 43.191406 35.292969 42.921875 L 0.00390625 21.570312 L 0.00390625 60.429688 C 0.00390625 60.804688 0.0390625 61.171875 0.109375 61.539062 C 0.183594 61.90625 0.289062 62.265625 0.433594 62.609375 C 0.574219 62.957031 0.75 63.285156 0.957031 63.59375 C 1.160156 63.90625 1.394531 64.195312 1.660156 64.460938 C 1.921875 64.722656 2.207031 64.960938 2.515625 65.167969 C 2.824219 65.375 3.148438 65.550781 3.492188 65.695312 C 3.835938 65.839844 4.1875 65.945312 4.554688 66.019531 C 4.917969 66.09375 5.285156 66.128906 5.65625 66.128906 L 67.84375 66.128906 C 68.214844 66.128906 68.582031 66.09375 68.945312 66.019531 C 69.3125 65.945312 69.664062 65.839844 70.007812 65.695312 C 70.351562 65.550781 70.675781 65.375 70.984375 65.167969 C 71.292969 64.960938 71.578125 64.722656 71.839844 64.460938 C 72.105469 64.195312 72.339844 63.90625 72.542969 63.59375 C 72.75 63.285156 72.925781 62.957031 73.066406 62.609375 C 73.210938 62.265625 73.316406 61.90625 73.390625 61.539062 C 73.460938 61.171875 73.496094 60.804688 73.496094 60.429688 L 73.496094 21.570312 Z M 38.207031 42.921875 " fill-opacity="1" fill-rule="nonzero"/></g></svg>