<svg xmlns="http://www.w3.org/2000/svg" xmlns:xlink="http://www.w3.org/1999/xlink" width="100" zoomAndPan="magnify" viewBox="0 0 75 74.999997" height="100" preserveAspectRatio="xMidYMid meet" version="1.0"><path fill="#000000" d="M 36.832031 1.003906 C 35.28125 1.003906 33.738281 1.101562 32.203125 1.304688 C 30.667969 1.507812 29.152344 1.808594 27.65625 2.210938 C 26.160156 2.617188 24.695312 3.113281 23.265625 3.710938 C 21.835938 4.308594 20.453125 4.996094 19.113281 5.777344 C 17.777344 6.554688 16.496094 7.417969 15.269531 8.367188 C 14.046875 9.316406 12.890625 10.34375 11.800781 11.445312 C 10.714844 12.546875 9.703125 13.71875 8.769531 14.953125 C 7.835938 16.191406 6.988281 17.480469 6.222656 18.832031 C 5.460938 20.179688 4.792969 21.570312 4.210938 23.007812 C 3.632812 24.445312 3.152344 25.914062 2.769531 27.414062 C 2.386719 28.914062 2.101562 30.433594 1.917969 31.972656 C 1.738281 33.511719 1.65625 35.054688 1.675781 36.605469 C 1.699219 38.152344 1.824219 39.695312 2.046875 41.226562 C 2.273438 42.757812 2.597656 44.269531 3.023438 45.761719 C 3.449219 47.25 3.972656 48.703125 4.589844 50.125 C 5.207031 51.546875 5.917969 52.917969 6.714844 54.246094 L 1.757812 69.113281 C 1.71875 69.238281 1.691406 69.367188 1.679688 69.5 C 1.667969 69.632812 1.671875 69.765625 1.691406 69.894531 C 1.714844 70.027344 1.75 70.152344 1.796875 70.277344 C 1.847656 70.398438 1.914062 70.515625 1.988281 70.621094 C 2.066406 70.730469 2.15625 70.824219 2.257812 70.914062 C 2.359375 71 2.46875 71.074219 2.585938 71.132812 C 2.703125 71.191406 2.828125 71.238281 2.957031 71.269531 C 3.085938 71.300781 3.214844 71.316406 3.347656 71.316406 C 3.53125 71.316406 3.707031 71.289062 3.878906 71.230469 L 18.746094 66.273438 C 19.324219 66.621094 19.910156 66.953125 20.507812 67.265625 C 21.105469 67.578125 21.710938 67.875 22.324219 68.152344 C 22.9375 68.433594 23.558594 68.691406 24.191406 68.9375 C 24.820312 69.179688 25.453125 69.402344 26.097656 69.609375 C 26.738281 69.816406 27.386719 70.003906 28.039062 70.171875 C 28.691406 70.339844 29.347656 70.492188 30.007812 70.621094 C 30.671875 70.753906 31.335938 70.863281 32.003906 70.957031 C 32.671875 71.050781 33.339844 71.125 34.015625 71.179688 C 34.6875 71.234375 35.359375 71.269531 36.03125 71.285156 C 36.707031 71.300781 37.382812 71.296875 38.054688 71.273438 C 38.730469 71.25 39.402344 71.207031 40.074219 71.144531 C 40.746094 71.082031 41.414062 71 42.082031 70.898438 C 42.746094 70.800781 43.410156 70.679688 44.070312 70.542969 C 44.730469 70.402344 45.386719 70.246094 46.035156 70.070312 C 46.6875 69.890625 47.332031 69.699219 47.972656 69.484375 C 48.613281 69.269531 49.246094 69.039062 49.871094 68.789062 C 50.496094 68.539062 51.117188 68.269531 51.726562 67.984375 C 52.335938 67.699219 52.941406 67.398438 53.53125 67.078125 C 54.125 66.757812 54.710938 66.417969 55.285156 66.066406 C 55.859375 65.710938 56.421875 65.339844 56.972656 64.957031 C 57.527344 64.570312 58.066406 64.167969 58.597656 63.75 C 59.128906 63.332031 59.644531 62.898438 60.148438 62.453125 C 60.652344 62.003906 61.144531 61.542969 61.625 61.070312 C 62.101562 60.59375 62.566406 60.105469 63.015625 59.601562 C 63.464844 59.101562 63.902344 58.585938 64.320312 58.058594 C 64.742188 57.53125 65.148438 56.992188 65.535156 56.441406 C 65.925781 55.890625 66.296875 55.328125 66.65625 54.757812 C 67.011719 54.1875 67.351562 53.605469 67.675781 53.011719 C 68 52.421875 68.304688 51.820312 68.59375 51.210938 C 68.882812 50.601562 69.15625 49.984375 69.410156 49.359375 C 69.664062 48.734375 69.898438 48.101562 70.113281 47.464844 C 70.332031 46.828125 70.53125 46.183594 70.710938 45.53125 C 70.890625 44.882812 71.050781 44.226562 71.195312 43.570312 C 71.335938 42.910156 71.460938 42.246094 71.5625 41.582031 C 71.667969 40.914062 71.753906 40.246094 71.820312 39.574219 C 71.886719 38.902344 71.929688 38.230469 71.957031 37.558594 C 71.984375 36.882812 71.992188 36.210938 71.980469 35.535156 C 71.96875 34.863281 71.9375 34.1875 71.886719 33.515625 C 71.835938 32.84375 71.769531 32.171875 71.679688 31.503906 C 71.589844 30.835938 71.480469 30.171875 71.355469 29.507812 C 71.226562 28.847656 71.082031 28.1875 70.914062 27.535156 C 70.75 26.882812 70.566406 26.234375 70.363281 25.589844 C 70.160156 24.945312 69.941406 24.308594 69.699219 23.679688 C 69.460938 23.050781 69.203125 22.425781 68.929688 21.808594 C 68.652344 21.195312 68.359375 20.585938 68.050781 19.988281 C 67.742188 19.390625 67.414062 18.800781 67.070312 18.21875 C 66.726562 17.640625 66.367188 17.070312 65.988281 16.511719 C 65.613281 15.953125 65.21875 15.40625 64.8125 14.867188 C 64.402344 14.332031 63.980469 13.808594 63.539062 13.292969 C 63.101562 12.78125 62.648438 12.28125 62.183594 11.796875 C 61.714844 11.3125 61.234375 10.839844 60.738281 10.378906 C 60.246094 9.921875 59.738281 9.476562 59.21875 9.046875 C 58.699219 8.617188 58.167969 8.203125 57.621094 7.804688 C 57.078125 7.40625 56.523438 7.023438 55.957031 6.65625 C 55.390625 6.292969 54.816406 5.941406 54.230469 5.605469 C 53.644531 5.273438 53.050781 4.957031 52.445312 4.65625 C 51.839844 4.359375 51.230469 4.078125 50.609375 3.8125 C 49.988281 3.546875 49.359375 3.300781 48.726562 3.074219 C 48.089844 2.847656 47.449219 2.636719 46.804688 2.445312 C 46.15625 2.253906 45.503906 2.082031 44.847656 1.929688 C 44.191406 1.773438 43.53125 1.640625 42.867188 1.523438 C 42.203125 1.410156 41.535156 1.3125 40.867188 1.234375 C 40.195312 1.160156 39.523438 1.101562 38.851562 1.0625 C 38.179688 1.023438 37.503906 1.003906 36.832031 1.003906 Z M 36.832031 67.96875 C 33.824219 67.964844 30.878906 67.546875 27.992188 66.703125 C 25.105469 65.863281 22.390625 64.636719 19.855469 63.023438 C 19.582031 62.851562 19.28125 62.765625 18.957031 62.765625 C 18.777344 62.765625 18.601562 62.792969 18.429688 62.851562 L 5.992188 66.996094 L 10.140625 54.5625 C 10.304688 54.058594 10.246094 53.585938 9.964844 53.136719 C 9.34375 52.152344 8.777344 51.132812 8.269531 50.085938 C 7.757812 49.039062 7.308594 47.964844 6.917969 46.867188 C 6.523438 45.769531 6.195312 44.652344 5.925781 43.519531 C 5.65625 42.382812 5.449219 41.238281 5.308594 40.082031 C 5.164062 38.925781 5.085938 37.761719 5.070312 36.597656 C 5.054688 35.433594 5.101562 34.269531 5.214844 33.109375 C 5.328125 31.949219 5.503906 30.796875 5.742188 29.65625 C 5.984375 28.515625 6.285156 27.390625 6.648438 26.285156 C 7.011719 25.175781 7.433594 24.09375 7.914062 23.03125 C 8.398438 21.96875 8.9375 20.9375 9.53125 19.9375 C 10.128906 18.933594 10.777344 17.96875 11.480469 17.039062 C 12.183594 16.105469 12.933594 15.21875 13.734375 14.371094 C 14.53125 13.523438 15.375 12.722656 16.265625 11.964844 C 17.152344 11.210938 18.078125 10.507812 19.046875 9.855469 C 20.011719 9.199219 21.007812 8.601562 22.042969 8.058594 C 23.074219 7.515625 24.128906 7.03125 25.214844 6.605469 C 26.300781 6.175781 27.40625 5.8125 28.53125 5.507812 C 29.65625 5.199219 30.792969 4.957031 31.945312 4.777344 C 33.097656 4.597656 34.253906 4.480469 35.417969 4.429688 C 36.582031 4.378906 37.746094 4.386719 38.910156 4.464844 C 40.074219 4.539062 41.230469 4.679688 42.378906 4.882812 C 43.527344 5.082031 44.660156 5.347656 45.777344 5.675781 C 46.898438 6.003906 47.996094 6.390625 49.070312 6.839844 C 50.148438 7.289062 51.195312 7.792969 52.214844 8.355469 C 53.234375 8.921875 54.222656 9.539062 55.175781 10.210938 C 56.128906 10.882812 57.039062 11.605469 57.914062 12.375 C 58.785156 13.148438 59.613281 13.964844 60.398438 14.828125 C 61.179688 15.695312 61.914062 16.597656 62.597656 17.542969 C 63.28125 18.484375 63.910156 19.464844 64.488281 20.476562 C 65.0625 21.492188 65.582031 22.535156 66.042969 23.605469 C 66.503906 24.675781 66.90625 25.765625 67.246094 26.882812 C 67.589844 27.996094 67.867188 29.125 68.082031 30.273438 C 68.300781 31.417969 68.453125 32.570312 68.542969 33.734375 C 68.632812 34.894531 68.660156 36.058594 68.621094 37.222656 C 68.582031 38.390625 68.480469 39.546875 68.316406 40.703125 C 68.148438 41.855469 67.921875 42.996094 67.628906 44.125 C 67.339844 45.253906 66.984375 46.363281 66.574219 47.453125 C 66.160156 48.542969 65.6875 49.609375 65.15625 50.644531 C 64.625 51.683594 64.039062 52.691406 63.398438 53.664062 C 62.757812 54.636719 62.066406 55.574219 61.324219 56.46875 C 60.578125 57.367188 59.789062 58.222656 58.949219 59.03125 C 58.113281 59.84375 57.230469 60.605469 56.308594 61.316406 C 55.386719 62.03125 54.429688 62.691406 53.433594 63.300781 C 52.441406 63.910156 51.417969 64.460938 50.359375 64.957031 C 49.304688 65.449219 48.226562 65.886719 47.125 66.261719 C 46.019531 66.640625 44.898438 66.957031 43.761719 67.207031 C 42.625 67.460938 41.476562 67.652344 40.316406 67.78125 C 39.160156 67.90625 37.996094 67.96875 36.832031 67.96875 Z M 23.4375 36.160156 C 23.4375 36.605469 23.351562 37.03125 23.183594 37.441406 C 23.011719 37.851562 22.769531 38.214844 22.457031 38.527344 C 22.144531 38.84375 21.78125 39.085938 21.371094 39.253906 C 20.960938 39.425781 20.535156 39.507812 20.089844 39.507812 C 19.644531 39.507812 19.21875 39.425781 18.808594 39.253906 C 18.398438 39.085938 18.035156 38.84375 17.722656 38.527344 C 17.40625 38.214844 17.164062 37.851562 16.996094 37.441406 C 16.824219 37.03125 16.742188 36.605469 16.742188 36.160156 C 16.742188 35.714844 16.824219 35.289062 16.996094 34.878906 C 17.164062 34.46875 17.40625 34.105469 17.722656 33.792969 C 18.035156 33.480469 18.398438 33.238281 18.808594 33.066406 C 19.21875 32.898438 19.644531 32.8125 20.089844 32.8125 C 20.535156 32.8125 20.960938 32.898438 21.371094 33.066406 C 21.78125 33.238281 22.144531 33.480469 22.457031 33.792969 C 22.769531 34.105469 23.011719 34.46875 23.183594 34.878906 C 23.351562 35.289062 23.4375 35.714844 23.4375 36.160156 Z M 40.179688 36.160156 C 40.179688 36.605469 40.09375 37.03125 39.921875 37.441406 C 39.753906 37.851562 39.511719 38.214844 39.199219 38.527344 C 38.882812 38.84375 38.523438 39.085938 38.113281 39.253906 C 37.703125 39.425781 37.273438 39.507812 36.832031 39.507812 C 36.386719 39.507812 35.960938 39.425781 35.550781 39.253906 C 35.140625 39.085938 34.777344 38.84375 34.460938 38.527344 C 34.148438 38.214844 33.90625 37.851562 33.738281 37.441406 C 33.566406 37.03125 33.480469 36.605469 33.480469 36.160156 C 33.480469 35.714844 33.566406 35.289062 33.738281 34.878906 C 33.90625 34.46875 34.148438 34.105469 34.460938 33.792969 C 34.777344 33.480469 35.140625 33.238281 35.550781 33.066406 C 35.960938 32.898438 36.386719 32.8125 36.832031 32.8125 C 37.273438 32.8125 37.703125 32.898438 38.113281 33.066406 C 38.523438 33.238281 38.882812 33.480469 39.199219 33.792969 C 39.511719 34.105469 39.753906 34.46875 39.921875 34.878906 C 40.09375 35.289062 40.179688 35.714844 40.179688 36.160156 Z M 56.917969 36.160156 C 56.917969 36.605469 56.835938 37.03125 56.664062 37.441406 C 56.496094 37.851562 56.253906 38.214844 55.9375 38.527344 C 55.625 38.84375 55.261719 39.085938 54.851562 39.253906 C 54.441406 39.425781 54.015625 39.507812 53.570312 39.507812 C 53.128906 39.507812 52.699219 39.425781 52.289062 39.253906 C 51.878906 39.085938 51.519531 38.84375 51.203125 38.527344 C 50.890625 38.214844 50.648438 37.851562 50.476562 37.441406 C 50.308594 37.03125 50.222656 36.605469 50.222656 36.160156 C 50.222656 35.714844 50.308594 35.289062 50.476562 34.878906 C 50.648438 34.46875 50.890625 34.105469 51.203125 33.792969 C 51.519531 33.480469 51.878906 33.238281 52.289062 33.066406 C 52.699219 32.898438 53.128906 32.8125 53.570312 32.8125 C 54.015625 32.8125 54.441406 32.898438 54.851562 33.066406 C 55.261719 33.238281 55.625 33.480469 55.9375 33.792969 C 56.253906 34.105469 56.496094 34.46875 56.664062 34.878906 C 56.835938 35.289062 56.917969 35.714844 56.917969 36.160156 Z M 56.917969 36.160156 " fill-opacity="1" fill-rule="nonzero"/></svg>