<svg xmlns="http://www.w3.org/2000/svg" xmlns:xlink="http://www.w3.org/1999/xlink" width="100" zoomAndPan="magnify" viewBox="0 0 75 74.999997" height="100" preserveAspectRatio="xMidYMid meet" version="1.0"><defs><clipPath id="9020f91674"><path d="M 5.753906 0 L 69.503906 0 L 69.503906 75 L 5.753906 75 Z M 5.753906 0 " clip-rule="nonzero"/></clipPath></defs><g clip-path="url(#9020f91674)"><path fill="#212121" d="M 31.847656 52.121094 C 31.847656 50.851562 30.8125 49.820312 29.53125 49.820312 C 28.253906 49.820312 27.21875 50.851562 27.21875 52.121094 C 27.21875 53.394531 28.253906 54.425781 29.53125 54.425781 C 30.8125 54.425781 31.847656 53.394531 31.847656 52.121094 Z M 24.957031 52.121094 C 24.957031 50.851562 23.921875 49.820312 22.644531 49.820312 C 21.367188 49.820312 20.328125 50.851562 20.328125 52.121094 C 20.328125 53.394531 21.367188 54.425781 22.644531 54.425781 C 23.921875 54.425781 24.957031 53.394531 24.957031 52.121094 Z M 18.066406 52.121094 C 18.066406 50.851562 17.03125 49.820312 15.753906 49.820312 C 14.476562 49.820312 13.441406 50.851562 13.441406 52.121094 C 13.441406 53.394531 14.476562 54.425781 15.753906 54.425781 C 17.03125 54.425781 18.066406 53.394531 18.066406 52.121094 Z M 22.644531 36.183594 C 27.371094 36.183594 31.089844 37.558594 33.386719 40.15625 C 34.613281 41.539062 34.128906 42.980469 33.339844 43.789062 C 32.269531 44.894531 30.296875 45.28125 28.316406 43.652344 C 25.8125 41.597656 23.8125 39.050781 22.394531 36.1875 C 22.476562 36.183594 22.558594 36.183594 22.644531 36.183594 Z M 32.625 74.914062 C 32.914062 74.785156 33.101562 74.503906 33.117188 74.191406 L 33.585938 64.136719 C 36.160156 61.953125 37.996094 59.105469 38.90625 55.871094 C 39.03125 55.425781 38.769531 54.964844 38.324219 54.839844 C 37.875 54.714844 37.410156 54.972656 37.285156 55.417969 C 36.433594 58.4375 34.6875 61.085938 32.230469 63.074219 C 32.042969 63.226562 31.929688 63.449219 31.917969 63.6875 L 31.511719 72.480469 L 24.078125 66.621094 C 23.917969 66.492188 23.714844 66.429688 23.507812 66.441406 C 23.195312 66.457031 22.910156 66.464844 22.644531 66.464844 C 14.257812 66.464844 7.4375 59.675781 7.4375 51.324219 C 7.4375 43.667969 13.175781 37.324219 20.589844 36.320312 C 22.125 39.644531 24.378906 42.59375 27.242188 44.945312 C 30.039062 47.242188 32.992188 46.5625 34.550781 44.957031 C 36.195312 43.265625 36.234375 40.835938 34.652344 39.046875 C 32.816406 36.976562 29.246094 34.507812 22.644531 34.507812 C 22.3125 34.507812 21.980469 34.515625 21.652344 34.535156 C 20.527344 31.734375 19.933594 28.683594 19.933594 25.53125 C 19.933594 12.382812 30.671875 1.6875 43.875 1.6875 C 57.078125 1.6875 67.820312 12.382812 67.820312 25.53125 C 67.820312 32.734375 64.59375 39.480469 58.972656 44.035156 C 58.785156 44.183594 58.671875 44.40625 58.660156 44.644531 L 57.992188 59.117188 L 45.808594 49.511719 C 45.445312 49.222656 44.914062 49.285156 44.625 49.648438 C 44.335938 50.011719 44.398438 50.539062 44.765625 50.828125 L 58.234375 61.445312 C 58.480469 61.640625 58.820312 61.683594 59.105469 61.550781 C 59.394531 61.421875 59.582031 61.140625 59.597656 60.828125 L 60.328125 45.09375 C 66.164062 40.226562 69.503906 33.117188 69.503906 25.53125 C 69.503906 11.457031 58.007812 0.0078125 43.875 0.0078125 C 29.746094 0.0078125 18.246094 11.457031 18.246094 25.53125 C 18.246094 28.738281 18.824219 31.851562 19.921875 34.726562 C 11.898438 36.027344 5.753906 42.976562 5.753906 51.324219 C 5.753906 60.597656 13.332031 68.144531 22.644531 68.144531 C 22.847656 68.144531 23.058594 68.140625 23.28125 68.128906 L 31.753906 74.808594 C 31.90625 74.929688 32.089844 74.992188 32.277344 74.992188 C 32.394531 74.992188 32.515625 74.964844 32.625 74.914062 Z M 54.710938 24.6875 C 54.710938 23.25 53.539062 22.082031 52.09375 22.082031 C 50.648438 22.082031 49.476562 23.25 49.476562 24.6875 C 49.476562 26.128906 50.648438 27.292969 52.09375 27.292969 C 53.539062 27.292969 54.710938 26.128906 54.710938 24.6875 Z M 46.914062 24.6875 C 46.914062 23.25 45.742188 22.082031 44.296875 22.082031 C 42.851562 22.082031 41.679688 23.25 41.679688 24.6875 C 41.679688 26.128906 42.851562 27.292969 44.296875 27.292969 C 45.742188 27.292969 46.914062 26.128906 46.914062 24.6875 Z M 36.5 27.292969 C 35.054688 27.292969 33.882812 26.128906 33.882812 24.6875 C 33.882812 23.25 35.054688 22.082031 36.5 22.082031 C 37.945312 22.082031 39.117188 23.25 39.117188 24.6875 C 39.117188 26.128906 37.945312 27.292969 36.5 27.292969 " fill-opacity="1" fill-rule="nonzero"/></g></svg>