<svg xmlns="http://www.w3.org/2000/svg" xmlns:xlink="http://www.w3.org/1999/xlink" width="100" zoomAndPan="magnify" viewBox="0 0 75 74.999997" height="100" preserveAspectRatio="xMidYMid meet" version="1.0"><defs><clipPath id="9fb6220014"><path d="M 10.171875 0 L 62 0 L 62 74 L 10.171875 74 Z M 10.171875 0 " clip-rule="nonzero"/></clipPath><clipPath id="1e6b49f779"><path d="M 45 51 L 64.921875 51 L 64.921875 68 L 45 68 Z M 45 51 " clip-rule="nonzero"/></clipPath></defs><g clip-path="url(#9fb6220014)"><path fill="#ffffff" d="M 26.191406 0.429688 C 26.191406 0.429688 10.253906 0.640625 10.460938 15.050781 C 10.667969 29.460938 13.566406 42.203125 18.328125 49.304688 C 23.085938 56.40625 35.296875 74.996094 49.164062 73.117188 C 49.164062 73.117188 55.996094 71.65625 61.167969 68.3125 L 44.402344 55.152344 C 44.402344 55.152344 39.4375 58.289062 36.332031 54.109375 C 33.226562 49.929688 23.5 30.507812 23.5 30.507812 C 23.5 30.507812 20.808594 24.242188 26.8125 21.527344 Z M 26.191406 0.429688 " fill-opacity="1" fill-rule="nonzero"/></g><path fill="#ffffff" d="M 28.054688 0.429688 C 28.054688 0.429688 29.296875 0.015625 31.574219 1.265625 C 33.847656 2.519531 33.847656 3.5625 33.847656 3.5625 L 34.054688 17.976562 C 34.054688 17.976562 33.433594 18.8125 32.609375 19.644531 C 31.78125 20.480469 29.089844 21.734375 28.675781 20.898438 C 28.261719 20.066406 28.054688 0.429688 28.054688 0.429688 Z M 28.054688 0.429688 " fill-opacity="1" fill-rule="nonzero"/><g clip-path="url(#1e6b49f779)"><path fill="#ffffff" d="M 45.796875 53.613281 L 50.40625 51.183594 C 50.40625 51.183594 51.441406 50.976562 53.097656 52.019531 C 54.753906 53.066406 63.445312 59.960938 63.445312 59.960938 C 63.445312 59.960938 64.894531 61.210938 64.480469 62.675781 C 64.066406 64.136719 63.03125 67.269531 63.03125 67.269531 Z M 45.796875 53.613281 " fill-opacity="1" fill-rule="nonzero"/></g></svg>