<svg xmlns="http://www.w3.org/2000/svg" xmlns:xlink="http://www.w3.org/1999/xlink" width="100" zoomAndPan="magnify" viewBox="0 0 75 74.999997" height="100" preserveAspectRatio="xMidYMid meet" version="1.0"><defs><clipPath id="24e63956b5"><path d="M 9.375 0 L 65.625 0 L 65.625 75 L 9.375 75 Z M 9.375 0 " clip-rule="nonzero"/></clipPath></defs><g clip-path="url(#24e63956b5)"><path fill="#000000" d="M 61.695312 8.726562 L 51.617188 8.726562 L 51.617188 4.097656 C 51.617188 3.835938 51.589844 3.574219 51.539062 3.316406 C 51.488281 3.058594 51.410156 2.808594 51.308594 2.5625 C 51.207031 2.320312 51.085938 2.089844 50.9375 1.871094 C 50.792969 1.652344 50.625 1.449219 50.441406 1.265625 C 50.253906 1.078125 50.050781 0.914062 49.832031 0.765625 C 49.613281 0.621094 49.382812 0.496094 49.140625 0.394531 C 48.898438 0.292969 48.648438 0.21875 48.390625 0.167969 C 48.132812 0.117188 47.871094 0.0898438 47.609375 0.0898438 L 27.527344 0.0898438 C 27.261719 0.0898438 27.003906 0.117188 26.746094 0.167969 C 26.488281 0.21875 26.234375 0.292969 25.992188 0.394531 C 25.75 0.496094 25.519531 0.621094 25.300781 0.765625 C 25.082031 0.914062 24.878906 1.078125 24.695312 1.265625 C 24.507812 1.449219 24.339844 1.652344 24.195312 1.871094 C 24.050781 2.089844 23.925781 2.320312 23.824219 2.5625 C 23.722656 2.808594 23.648438 3.058594 23.597656 3.316406 C 23.542969 3.574219 23.519531 3.835938 23.519531 4.097656 L 23.519531 8.726562 L 13.4375 8.726562 C 13.171875 8.726562 12.914062 8.75 12.65625 8.804688 C 12.398438 8.855469 12.148438 8.929688 11.902344 9.03125 C 11.660156 9.132812 11.429688 9.257812 11.210938 9.402344 C 10.992188 9.546875 10.789062 9.714844 10.605469 9.902344 C 10.417969 10.085938 10.25 10.289062 10.105469 10.507812 C 9.960938 10.726562 9.835938 10.957031 9.734375 11.199219 C 9.632812 11.445312 9.558594 11.695312 9.507812 11.953125 C 9.453125 12.210938 9.429688 12.472656 9.429688 12.734375 L 9.429688 15.671875 C 9.4375 15.976562 9.476562 16.273438 9.550781 16.566406 C 9.621094 16.859375 9.726562 17.140625 9.859375 17.414062 C 9.992188 17.683594 10.15625 17.9375 10.34375 18.175781 C 10.53125 18.410156 10.742188 18.625 10.980469 18.8125 C 11.214844 19.003906 11.464844 19.167969 11.734375 19.304688 C 12.007812 19.4375 12.289062 19.542969 12.582031 19.617188 C 12.875 19.695312 13.171875 19.738281 13.472656 19.746094 C 13.773438 19.757812 14.074219 19.734375 14.371094 19.679688 L 16.738281 68.554688 C 16.757812 68.976562 16.816406 69.398438 16.917969 69.808594 C 17.019531 70.222656 17.15625 70.625 17.332031 71.011719 C 17.507812 71.398438 17.722656 71.765625 17.96875 72.109375 C 18.214844 72.457031 18.492188 72.777344 18.800781 73.070312 C 19.109375 73.363281 19.441406 73.625 19.796875 73.855469 C 20.15625 74.082031 20.53125 74.277344 20.929688 74.433594 C 21.324219 74.59375 21.730469 74.710938 22.148438 74.792969 C 22.566406 74.871094 22.984375 74.910156 23.410156 74.910156 L 51.722656 74.910156 C 52.148438 74.910156 52.570312 74.871094 52.988281 74.792969 C 53.402344 74.710938 53.808594 74.59375 54.207031 74.433594 C 54.601562 74.277344 54.976562 74.082031 55.335938 73.855469 C 55.691406 73.625 56.023438 73.363281 56.332031 73.070312 C 56.640625 72.777344 56.917969 72.457031 57.164062 72.109375 C 57.410156 71.761719 57.621094 71.398438 57.800781 71.011719 C 57.976562 70.625 58.113281 70.222656 58.214844 69.808594 C 58.316406 69.398438 58.375 68.976562 58.394531 68.554688 L 60.761719 19.679688 C 61.058594 19.734375 61.355469 19.757812 61.660156 19.746094 C 61.960938 19.734375 62.257812 19.695312 62.550781 19.617188 C 62.84375 19.542969 63.125 19.4375 63.394531 19.304688 C 63.667969 19.167969 63.917969 19.003906 64.152344 18.8125 C 64.386719 18.625 64.601562 18.410156 64.789062 18.171875 C 64.976562 17.9375 65.136719 17.683594 65.273438 17.414062 C 65.40625 17.140625 65.507812 16.859375 65.582031 16.566406 C 65.65625 16.273438 65.695312 15.976562 65.703125 15.671875 L 65.703125 12.734375 C 65.703125 12.46875 65.675781 12.210938 65.625 11.953125 C 65.574219 11.695312 65.5 11.445312 65.398438 11.199219 C 65.296875 10.957031 65.171875 10.726562 65.027344 10.507812 C 64.878906 10.289062 64.714844 10.085938 64.527344 9.902344 C 64.34375 9.714844 64.140625 9.550781 63.921875 9.402344 C 63.703125 9.257812 63.472656 9.132812 63.230469 9.03125 C 62.988281 8.929688 62.734375 8.855469 62.476562 8.804688 C 62.21875 8.75 61.960938 8.726562 61.695312 8.726562 Z M 26.191406 4.097656 C 26.191406 3.921875 26.222656 3.75 26.292969 3.585938 C 26.359375 3.421875 26.457031 3.277344 26.582031 3.152344 C 26.707031 3.027344 26.851562 2.929688 27.015625 2.863281 C 27.179688 2.796875 27.347656 2.761719 27.527344 2.761719 L 47.605469 2.761719 C 47.785156 2.761719 47.953125 2.796875 48.117188 2.863281 C 48.28125 2.929688 48.425781 3.027344 48.550781 3.152344 C 48.675781 3.277344 48.773438 3.421875 48.839844 3.585938 C 48.910156 3.75 48.941406 3.921875 48.941406 4.097656 L 48.941406 8.726562 L 26.191406 8.726562 Z M 55.726562 68.425781 C 55.703125 68.9375 55.582031 69.429688 55.367188 69.898438 C 55.15625 70.367188 54.859375 70.777344 54.488281 71.132812 C 54.117188 71.488281 53.691406 71.761719 53.210938 71.953125 C 52.734375 72.144531 52.238281 72.238281 51.722656 72.238281 L 23.410156 72.238281 C 22.894531 72.238281 22.398438 72.144531 21.921875 71.953125 C 21.441406 71.761719 21.019531 71.488281 20.644531 71.132812 C 20.273438 70.777344 19.980469 70.367188 19.765625 69.898438 C 19.550781 69.429688 19.433594 68.9375 19.40625 68.425781 L 17.050781 19.679688 L 58.085938 19.679688 Z M 63.03125 15.671875 C 63.03125 15.851562 63 16.019531 62.929688 16.183594 C 62.863281 16.347656 62.765625 16.492188 62.640625 16.617188 C 62.515625 16.742188 62.371094 16.839844 62.207031 16.90625 C 62.042969 16.976562 61.875 17.007812 61.695312 17.007812 L 13.4375 17.007812 C 13.257812 17.007812 13.089844 16.976562 12.925781 16.90625 C 12.761719 16.839844 12.617188 16.742188 12.492188 16.617188 C 12.367188 16.492188 12.269531 16.347656 12.203125 16.183594 C 12.136719 16.019531 12.101562 15.851562 12.101562 15.671875 L 12.101562 12.734375 C 12.101562 12.554688 12.136719 12.386719 12.203125 12.222656 C 12.269531 12.058594 12.367188 11.914062 12.492188 11.789062 C 12.617188 11.664062 12.761719 11.566406 12.925781 11.5 C 13.089844 11.429688 13.257812 11.398438 13.4375 11.398438 L 61.695312 11.398438 C 61.875 11.398438 62.042969 11.429688 62.207031 11.5 C 62.371094 11.566406 62.515625 11.664062 62.640625 11.789062 C 62.765625 11.914062 62.863281 12.058594 62.929688 12.222656 C 63 12.386719 63.03125 12.554688 63.03125 12.734375 Z M 63.03125 15.671875 " fill-opacity="1" fill-rule="nonzero"/></g><path fill="#000000" d="M 37.566406 61.105469 C 37.742188 61.105469 37.914062 61.070312 38.078125 61 C 38.242188 60.933594 38.386719 60.835938 38.511719 60.710938 C 38.636719 60.585938 38.734375 60.441406 38.800781 60.277344 C 38.867188 60.113281 38.902344 59.945312 38.902344 59.765625 L 38.902344 32.152344 C 38.902344 31.976562 38.867188 31.804688 38.800781 31.640625 C 38.734375 31.476562 38.636719 31.332031 38.511719 31.207031 C 38.386719 31.082031 38.242188 30.984375 38.078125 30.917969 C 37.914062 30.851562 37.742188 30.816406 37.566406 30.816406 C 37.390625 30.816406 37.21875 30.851562 37.054688 30.917969 C 36.890625 30.984375 36.746094 31.082031 36.621094 31.207031 C 36.496094 31.332031 36.398438 31.476562 36.332031 31.640625 C 36.265625 31.804688 36.230469 31.976562 36.230469 32.152344 L 36.230469 59.765625 C 36.230469 59.945312 36.265625 60.113281 36.332031 60.277344 C 36.398438 60.441406 36.496094 60.585938 36.621094 60.710938 C 36.746094 60.835938 36.890625 60.933594 37.054688 61 C 37.21875 61.070312 37.390625 61.105469 37.566406 61.105469 Z M 37.566406 61.105469 " fill-opacity="1" fill-rule="nonzero"/><path fill="#000000" d="M 48.253906 61.105469 C 48.433594 61.105469 48.601562 61.070312 48.765625 61 C 48.929688 60.933594 49.074219 60.835938 49.199219 60.710938 C 49.324219 60.585938 49.421875 60.441406 49.488281 60.277344 C 49.558594 60.113281 49.589844 59.945312 49.589844 59.765625 L 49.589844 32.152344 C 49.589844 31.976562 49.558594 31.804688 49.488281 31.640625 C 49.421875 31.476562 49.324219 31.332031 49.199219 31.207031 C 49.074219 31.082031 48.929688 30.984375 48.765625 30.917969 C 48.601562 30.851562 48.433594 30.816406 48.253906 30.816406 C 48.078125 30.816406 47.90625 30.851562 47.746094 30.917969 C 47.582031 30.984375 47.4375 31.082031 47.3125 31.207031 C 47.1875 31.332031 47.089844 31.476562 47.019531 31.640625 C 46.953125 31.804688 46.917969 31.976562 46.917969 32.152344 L 46.917969 59.765625 C 46.917969 59.945312 46.953125 60.113281 47.019531 60.277344 C 47.089844 60.441406 47.1875 60.585938 47.3125 60.710938 C 47.4375 60.835938 47.582031 60.933594 47.746094 61 C 47.90625 61.070312 48.078125 61.105469 48.253906 61.105469 Z M 48.253906 61.105469 " fill-opacity="1" fill-rule="nonzero"/><path fill="#000000" d="M 26.878906 61.105469 C 27.054688 61.105469 27.226562 61.070312 27.390625 61 C 27.554688 60.933594 27.699219 60.835938 27.824219 60.710938 C 27.949219 60.585938 28.042969 60.441406 28.113281 60.277344 C 28.179688 60.113281 28.214844 59.945312 28.214844 59.765625 L 28.214844 32.152344 C 28.214844 31.976562 28.179688 31.804688 28.113281 31.640625 C 28.042969 31.476562 27.949219 31.332031 27.824219 31.207031 C 27.699219 31.082031 27.554688 30.984375 27.390625 30.917969 C 27.226562 30.851562 27.054688 30.816406 26.878906 30.816406 C 26.699219 30.816406 26.53125 30.851562 26.367188 30.917969 C 26.203125 30.984375 26.058594 31.082031 25.933594 31.207031 C 25.808594 31.332031 25.710938 31.476562 25.644531 31.640625 C 25.574219 31.804688 25.542969 31.976562 25.542969 32.152344 L 25.542969 59.765625 C 25.542969 59.945312 25.574219 60.113281 25.644531 60.277344 C 25.710938 60.441406 25.808594 60.585938 25.933594 60.710938 C 26.058594 60.835938 26.203125 60.933594 26.367188 61 C 26.53125 61.070312 26.699219 61.105469 26.878906 61.105469 Z M 26.878906 61.105469 " fill-opacity="1" fill-rule="nonzero"/></svg>